<svg xmlns="http://www.w3.org/2000/svg" viewBox="0 0 1200 760" role="img" aria-labelledby="title desc">
  <title id="title">Athens and the Acropolis</title>
  <desc id="desc">A stylized illustration of the Acropolis of Athens at sunset.</desc>
  <defs>
    <linearGradient id="sky" x1="0" x2="0" y1="0" y2="1">
      <stop offset="0" stop-color="#4b3423"/>
      <stop offset="0.52" stop-color="#9a6938"/>
      <stop offset="1" stop-color="#1a130f"/>
    </linearGradient>
    <linearGradient id="stone" x1="0" x2="0" y1="0" y2="1">
      <stop offset="0" stop-color="#e2c391"/>
      <stop offset="1" stop-color="#9e7544"/>
    </linearGradient>
    <filter id="softShadow" x="-20%" y="-20%" width="140%" height="140%">
      <feDropShadow dx="0" dy="16" stdDeviation="18" flood-color="#000" flood-opacity="0.45"/>
    </filter>
  </defs>
  <rect width="1200" height="760" fill="url(#sky)"/>
  <circle cx="930" cy="160" r="92" fill="#d4a15f" opacity="0.82"/>
  <path d="M0 560 C220 505 365 530 520 490 C700 445 880 470 1200 390 L1200 760 L0 760 Z" fill="#211812" opacity="0.95"/>
  <path d="M120 610 C310 560 450 585 620 545 C800 500 990 520 1200 455 L1200 760 L120 760 Z" fill="#15100d"/>
  <g filter="url(#softShadow)">
    <path d="M245 418 L948 418 L1010 488 L170 488 Z" fill="#8a633a"/>
    <path d="M305 360 L886 360 L944 418 L248 418 Z" fill="url(#stone)"/>
    <rect x="323" y="268" width="544" height="48" fill="#d9b982"/>
    <path d="M285 316 L905 316 L883 360 L307 360 Z" fill="#b98a52"/>
    <path d="M336 230 L852 230 L875 268 L313 268 Z" fill="#e7c995"/>
    <g fill="#c99b61">
      <rect x="350" y="316" width="42" height="104"/>
      <rect x="430" y="316" width="42" height="104"/>
      <rect x="510" y="316" width="42" height="104"/>
      <rect x="590" y="316" width="42" height="104"/>
      <rect x="670" y="316" width="42" height="104"/>
      <rect x="750" y="316" width="42" height="104"/>
      <rect x="830" y="316" width="42" height="104"/>
    </g>
    <g fill="#f0d29e" opacity="0.38">
      <rect x="357" y="316" width="7" height="104"/>
      <rect x="437" y="316" width="7" height="104"/>
      <rect x="517" y="316" width="7" height="104"/>
      <rect x="597" y="316" width="7" height="104"/>
      <rect x="677" y="316" width="7" height="104"/>
      <rect x="757" y="316" width="7" height="104"/>
      <rect x="837" y="316" width="7" height="104"/>
    </g>
  </g>
  <g fill="#0d0a08" opacity="0.42">
    <path d="M50 658 C150 625 255 638 350 615 C455 590 535 612 660 592 C770 574 900 596 1150 535 L1200 760 L0 760 Z"/>
  </g>
</svg>
